<svg xmlns="http://www.w3.org/2000/svg" height="300" preserveAspectRatio="xMinYMin meet" viewBox="0 0 792 612">
  <path fill="#FFDE17" d="m692.629,322.014c-0.17,0 -0.342,-0.041 -0.498,-0.116c-0.35,-0.172 -35.392,-17.181 -69.708,-23.861c-37.238,-7.25 -73.149,-8.18 -100.275,-8.18c-9.884,0 -19.507,0.132 -28.813,0.259c-5.382,0.074 -10.662,0.146 -15.831,0.19c-6.068,0.053 -12.321,0.079 -18.584,0.079c-40.082,0 -114.561,-1.156 -163.037,-8.901c-46.669,-7.456 -89.523,-9.711 -89.951,-9.732c-0.549,-0.029 -0.998,-0.445 -1.067,-0.989c-0.069,-0.545 0.261,-1.061 0.785,-1.225c0.766,-0.241 77.037,-24.213 107.272,-28.695c20.696,-3.067 40.922,-4.688 58.491,-4.688c18.42,0 32.353,1.77 40.291,5.117c14.168,5.975 34.261,15.307 49.524,25.829c0.469,0.325 0.624,0.95 0.361,1.456c-0.195,0.377 -0.58,0.611 -1.006,0.611c-0.135,0 -0.268,-0.024 -0.394,-0.071c-0.251,-0.093 -25.952,-9.582 -42.592,-15.595c-13.251,-4.789 -25.402,-6.925 -39.398,-6.925c-8.715,0 -17.442,0.773 -27.547,1.668c-1.813,0.161 -3.649,0.324 -5.525,0.485c-23.26,2.004 -54.729,10.283 -63.098,12.566c3.237,2.766 11.639,9.169 22.878,11.979c14.547,3.636 76.559,5.973 87.103,6.05l1.374,0.004c10.333,0 42.045,-0.586 72.713,-1.154c30.334,-0.561 58.986,-1.091 68.234,-1.091c28.541,0 68.456,5.232 92.846,12.171c42.025,11.956 65.916,30.545 66.152,30.731c0.457,0.36 0.567,1.003 0.258,1.494c-0.206,0.334 -0.566,0.534 -0.958,0.534z"/>
  <path fill="#F26522" d="m287.722,333.228c-0.501,0 -0.937,-0.323 -1.084,-0.804c-12.905,-42.316 -79.404,-45.605 -99.478,-45.605c-8.437,0 -13.528,0.502 -15.326,0.718c-13.512,1.621 -29.062,10.178 -28.418,28.957c0.021,0.586 -0.402,1.086 -0.984,1.163c-0.025,0.003 -0.125,0.011 -0.149,0.011c-0.529,0 -0.983,-0.36 -1.104,-0.876c-2.356,-10.035 1.611,-18.754 5.111,-26.447c3.668,-8.062 6.318,-13.885 0.44,-18.104c-0.376,-0.27 -0.549,-0.735 -0.441,-1.185c0.108,-0.45 0.473,-0.786 0.93,-0.857c2.966,-0.456 5.689,-0.677 8.326,-0.677c5.364,0 10.011,0.916 15.894,2.076c9.451,1.863 22.392,4.413 47.498,5.061c21.516,0.556 47.139,4.665 65.848,7.665c5.043,0.808 9.357,1.5 12.965,2.022c14.199,2.057 26.565,2.833 45.285,4.008c10.494,0.659 22.377,1.405 37.78,2.56c16.315,1.224 36.44,1.844 59.818,1.844c41.16,0 78.707,-1.951 79.075,-1.971c0.001,0 0.002,0 0.003,0c0.588,0 1.04,0.359 1.161,0.873c0.125,0.536 -0.149,1.082 -0.654,1.3c-25.514,11.022 -56.444,16.157 -97.34,16.157c-17.299,0 -33.862,-0.864 -49.88,-1.699c-13.487,-0.703 -26.173,-1.363 -37.305,-1.363c-22.82,0 -35.829,2.969 -42.181,9.628c-3.421,3.586 -4.944,8.282 -4.657,14.357c0.026,0.569 -0.377,1.072 -0.939,1.17c-0.032,0.006 -0.162,0.018 -0.194,0.018z"/>
  <path fill="#F26522" d="m196.359,366.405c-0.25,0 -0.495,-0.085 -0.692,-0.237c-16.363,-12.563 -20.765,-37.639 -10.167,-57.354c-4.104,-1.409 -7.944,-2.124 -11.42,-2.124c-11.676,0 -19.978,8.233 -24.006,23.808c-0.117,0.454 -0.509,0.793 -0.975,0.844c-0.02,0.002 -0.102,0.008 -0.123,0.008c-0.427,0 -0.814,-0.237 -1.01,-0.618c-2.273,-4.463 -2.337,-10.534 -0.174,-16.656c2.563,-7.259 7.837,-13.268 14.108,-16.073c6.34,-2.836 16.389,-4.398 28.294,-4.398c12.727,0 26.157,1.729 37.815,4.867c0.515,0.139 0.859,0.608 0.838,1.141c-0.022,0.535 -0.405,0.974 -0.931,1.069c-0.211,0.039 -21.279,4.115 -30.201,23.345c-6.641,14.317 -6.811,31.02 -0.414,40.616c0.309,0.464 0.238,1.076 -0.169,1.457c-0.209,0.196 -0.485,0.305 -0.773,0.305z"/>
  <path fill="#FFDE17" d="m240.75,386.837c-22.382,0 -40.591,-18.21 -40.591,-40.592c0,-1.823 0.133,-3.709 0.395,-5.603c0.077,-0.559 0.559,-0.98 1.123,-0.98c0.625,0.023 1.094,0.479 1.132,1.062c0.139,2.166 0.493,4.326 1.051,6.42c3.86,14.486 17.013,24.604 31.986,24.604c2.871,0 5.747,-0.378 8.548,-1.124c17.646,-4.704 28.177,-22.888 23.476,-40.536c-2.381,-8.931 -8.185,-16.263 -16.344,-20.647c-0.514,-0.276 -0.733,-0.892 -0.511,-1.432c0.175,-0.426 0.587,-0.701 1.048,-0.701c0.111,0 0.222,0.017 0.329,0.05c17.043,5.095 28.949,21.087 28.949,38.889c0,22.38 -18.209,40.59 -40.591,40.59z"/>
  <path fill="#FFDE17" d="m180.624,353.661c-0.267,0 -0.526,-0.096 -0.731,-0.268c-0.167,-0.141 -16.88,-14.212 -26.646,-20.34c-0.333,-0.208 -0.531,-0.567 -0.531,-0.961c0,-8.01 9.506,-23.4 22.51,-23.4c1.59,0 3.198,0.235 4.778,0.698c0.32,0.094 0.581,0.321 0.716,0.624c0.136,0.306 0.132,0.652 -0.011,0.952c-9.003,18.831 0.846,40.867 0.946,41.088c0.22,0.478 0.075,1.057 -0.346,1.375c-0.196,0.149 -0.439,0.232 -0.685,0.232z"/>
  <path fill="#FFFFFF" d="m148.976,330.215c0.06,-0.229 0.125,-0.473 0.19,-0.714c-0.14,0.076 -0.276,0.151 -0.416,0.228c0.076,0.162 0.146,0.328 0.226,0.486z"/>
  <polygon fill="#F26522" points="178.282,210.095 248.779,210.095 94.332,0 23.835,0 "/>
  <polygon fill="#FFDE17" points="316.36,171.097 316.445,171.097 190.667,0 120.17,0 131.197,15 131.112,15 256.891,186.097   327.387,186.097 "/>
  <path fill="#FFFFFF" d="m441.901,383.793c0.088,-0.43 0.181,-1.064 0.278,-1.904c1.172,-0.303 2.189,-0.51 3.055,-0.623c0.863,-0.111 1.706,-0.168 2.526,-0.168c0.879,0 1.701,0.08 2.468,0.242c0.767,0.16 1.404,0.422 1.912,0.783s0.845,0.776 1.011,1.245s0.249,0.972 0.249,1.509c0,0.674 -0.051,1.805 -0.153,3.391c-0.102,1.588 -0.179,3.055 -0.232,4.402s-0.08,2.549 -0.08,3.604c-0.528,-0.02 -0.958,-0.029 -1.29,-0.029c-0.313,0 -0.758,0.01 -1.335,0.029l0.312,-3.999l0.223,-4.731c-0.343,0.264 -0.6,0.449 -0.771,0.557s-0.363,0.208 -0.579,0.301c-0.215,0.093 -0.451,0.181 -0.711,0.264c-0.259,0.083 -0.762,0.227 -1.51,0.432c-0.747,0.205 -1.277,0.361 -1.59,0.469c-0.675,0.215 -1.207,0.43 -1.599,0.645c-0.391,0.215 -0.718,0.449 -0.982,0.703c-0.264,0.254 -0.449,0.508 -0.557,0.762c-0.127,0.313 -0.19,0.64 -0.19,0.981c0,0.527 0.156,0.986 0.469,1.377s0.705,0.662 1.18,0.813c0.473,0.151 1.042,0.227 1.706,0.227c0.41,0 0.84,-0.028 1.289,-0.085c0.449,-0.058 1.05,-0.205 1.802,-0.442c-0.137,0.378 -0.293,0.959 -0.469,1.743c-0.713,0.137 -1.294,0.222 -1.743,0.257c-0.449,0.033 -0.874,0.051 -1.274,0.051c-1.338,0 -2.383,-0.156 -3.135,-0.469s-1.313,-0.788 -1.685,-1.428s-0.557,-1.336 -0.557,-2.088c0,-0.439 0.065,-0.845 0.198,-1.216c0.131,-0.371 0.31,-0.708 0.534,-1.011s0.545,-0.605 0.96,-0.908s0.85,-0.552 1.304,-0.747s0.984,-0.388 1.59,-0.579c0.605,-0.189 1.577,-0.446 2.915,-0.769c0.43,-0.098 0.796,-0.198 1.099,-0.3c0.303,-0.104 0.571,-0.203 0.806,-0.301s0.439,-0.213 0.615,-0.344c0.176,-0.133 0.338,-0.293 0.484,-0.484c0.146,-0.189 0.254,-0.383 0.322,-0.578c0.067,-0.195 0.103,-0.391 0.103,-0.586c0,-0.479 -0.156,-0.889 -0.47,-1.23c-0.313,-0.342 -0.72,-0.581 -1.223,-0.718s-1.097,-0.205 -1.78,-0.205c-0.635,0 -1.287,0.052 -1.956,0.153c-0.669,0.104 -1.245,0.226 -1.729,0.367s-1.087,0.352 -1.81,0.635z"/>
  <path fill="#FFFFFF" d="m470.834,396.273c-0.479,-0.02 -0.89,-0.029 -1.231,-0.029c-0.392,0 -0.797,0.01 -1.217,0.029l0.073,-2.827c-0.234,0.439 -0.438,0.779 -0.608,1.019s-0.384,0.474 -0.637,0.703c-0.255,0.229 -0.516,0.422 -0.784,0.578s-0.584,0.296 -0.944,0.418c-0.361,0.121 -0.784,0.224 -1.268,0.307s-0.998,0.125 -1.545,0.125c-1.191,0 -2.21,-0.181 -3.055,-0.542s-1.484,-0.874 -1.919,-1.538s-0.651,-1.572 -0.651,-2.725c0,-0.176 0.01,-0.474 0.029,-0.894c0.019,-0.42 0.048,-0.967 0.087,-1.641l0.246,-4.878l0.043,-1.567c0.01,-0.361 0.015,-0.82 0.015,-1.377l1.351,0.015c0.273,0 0.694,-0.005 1.262,-0.015c-0.139,1.709 -0.27,3.579 -0.393,5.61c-0.124,2.031 -0.186,3.33 -0.186,3.896c0,0.859 0.139,1.545 0.417,2.059c0.278,0.512 0.743,0.908 1.393,1.186c0.65,0.279 1.386,0.418 2.206,0.418c0.723,0 1.417,-0.127 2.081,-0.381c0.567,-0.225 1.046,-0.527 1.437,-0.908c0.42,-0.42 0.771,-0.962 1.056,-1.626c0.205,-0.488 0.361,-1.118 0.469,-1.89c0.068,-0.557 0.137,-1.558 0.205,-3.003c0.078,-1.758 0.131,-3.545 0.16,-5.361l1.364,0.015c0.293,0 0.703,-0.005 1.231,-0.015c-0.137,1.758 -0.297,4.429 -0.482,8.013c-0.108,1.973 -0.176,4.248 -0.205,6.826z"/>
  <path fill="#FFFFFF" d="m482.258,394.34c-0.107,0.479 -0.225,1.113 -0.352,1.904c-0.664,0.156 -1.191,0.254 -1.582,0.293s-0.762,0.059 -1.113,0.059c-0.869,0 -1.57,-0.109 -2.102,-0.33c-0.533,-0.219 -0.94,-0.57 -1.224,-1.055c-0.283,-0.482 -0.425,-1.14 -0.425,-1.97c0,-0.107 0.005,-0.298 0.015,-0.571s0.06,-1.226 0.149,-2.856l0.357,-6.563l-1.957,0c0.039,-0.41 0.073,-0.996 0.103,-1.758l1.997,0c0.049,-0.547 0.099,-1.479 0.147,-2.798c0.916,-0.176 1.69,-0.342 2.323,-0.498c-0.067,1.445 -0.106,2.544 -0.116,3.296l4.071,0c-0.049,0.615 -0.078,1.201 -0.088,1.758l-4.056,0l-0.391,8.247l-0.015,0.63c0,0.713 0.08,1.248 0.241,1.604s0.402,0.612 0.724,0.769c0.322,0.156 0.658,0.234 1.01,0.234c0.243,0 0.507,-0.02 0.79,-0.059c0.285,-0.038 0.782,-0.151 1.494,-0.336z"/>
  <path fill="#FFFFFF" d="m491.794,381.098c1.025,0 2.002,0.146 2.93,0.439s1.73,0.757 2.409,1.392s1.194,1.436 1.546,2.402s0.527,1.987 0.527,3.062c0,1.162 -0.188,2.275 -0.563,3.34c-0.377,1.064 -0.904,1.968 -1.582,2.71c-0.68,0.742 -1.51,1.287 -2.49,1.634c-0.982,0.346 -2.034,0.52 -3.157,0.52c-1.045,0 -2.031,-0.156 -2.959,-0.469s-1.731,-0.801 -2.409,-1.465c-0.68,-0.664 -1.194,-1.477 -1.546,-2.439c-0.352,-0.961 -0.527,-1.97 -0.527,-3.024c0,-1.592 0.322,-3.024 0.967,-4.3c0.645,-1.273 1.592,-2.227 2.842,-2.855c1.248,-0.633 2.586,-0.947 4.012,-0.947zm-0.066,1.86c-0.994,0 -1.908,0.249 -2.742,0.747s-1.451,1.248 -1.851,2.248c-0.399,1.002 -0.6,2.093 -0.6,3.274c0,1.035 0.166,1.966 0.497,2.79c0.332,0.826 0.878,1.492 1.639,2s1.677,0.762 2.75,0.762c0.731,0 1.424,-0.125 2.077,-0.373c0.653,-0.25 1.224,-0.662 1.711,-1.238s0.849,-1.281 1.082,-2.117c0.234,-0.834 0.352,-1.711 0.352,-2.629c0,-0.859 -0.117,-1.665 -0.352,-2.417c-0.233,-0.752 -0.592,-1.354 -1.074,-1.81c-0.483,-0.453 -1.029,-0.773 -1.639,-0.959s-1.226,-0.278 -1.85,-0.278z"/>
  <path fill="#FFFFFF" d="m512.99,394.047c-0.02,0.156 -0.071,0.447 -0.154,0.871c-0.083,0.426 -0.153,0.843 -0.212,1.253c-0.713,0.166 -1.399,0.278 -2.058,0.337c-0.66,0.059 -1.238,0.088 -1.736,0.088c-1.055,0 -2.029,-0.142 -2.922,-0.425c-0.895,-0.283 -1.673,-0.749 -2.337,-1.399c-0.664,-0.648 -1.152,-1.454 -1.465,-2.416s-0.469,-1.976 -0.469,-3.04c0,-1.436 0.254,-2.798 0.762,-4.087s1.309,-2.3 2.402,-3.032s2.583,-1.099 4.468,-1.099c1.387,0 2.739,0.186 4.058,0.557c0.059,0.83 0.112,1.514 0.161,2.051c-0.928,-0.293 -1.685,-0.49 -2.271,-0.594c-0.586,-0.102 -1.128,-0.153 -1.626,-0.153c-0.859,0 -1.629,0.156 -2.307,0.469c-0.68,0.313 -1.258,0.757 -1.736,1.333s-0.823,1.26 -1.033,2.051s-0.314,1.597 -0.314,2.417c0,1.104 0.171,2.07 0.513,2.9s0.939,1.472 1.794,1.927c0.854,0.453 1.814,0.681 2.879,0.681c1.035,-0.002 2.236,-0.231 3.603,-0.69z"/>
  <path fill="#FFFFFF" d="m517.18,383.793c0.088,-0.43 0.181,-1.064 0.278,-1.904c1.172,-0.303 2.189,-0.51 3.055,-0.623c0.863,-0.111 1.706,-0.168 2.526,-0.168c0.879,0 1.701,0.08 2.468,0.242c0.767,0.16 1.404,0.422 1.912,0.783s0.845,0.776 1.011,1.245s0.249,0.972 0.249,1.509c0,0.674 -0.051,1.805 -0.153,3.391c-0.102,1.588 -0.179,3.055 -0.232,4.402s-0.08,2.549 -0.08,3.604c-0.528,-0.02 -0.958,-0.029 -1.29,-0.029c-0.313,0 -0.758,0.01 -1.335,0.029l0.312,-3.999l0.223,-4.731c-0.343,0.264 -0.6,0.449 -0.771,0.557s-0.363,0.208 -0.579,0.301c-0.215,0.093 -0.451,0.181 -0.711,0.264c-0.259,0.083 -0.762,0.227 -1.51,0.432c-0.747,0.205 -1.277,0.361 -1.59,0.469c-0.675,0.215 -1.207,0.43 -1.599,0.645c-0.391,0.215 -0.718,0.449 -0.982,0.703c-0.264,0.254 -0.449,0.508 -0.557,0.762c-0.127,0.313 -0.19,0.64 -0.19,0.981c0,0.527 0.156,0.986 0.469,1.377s0.705,0.662 1.18,0.813c0.473,0.151 1.042,0.227 1.706,0.227c0.41,0 0.84,-0.028 1.289,-0.085c0.449,-0.058 1.05,-0.205 1.802,-0.442c-0.137,0.378 -0.293,0.959 -0.469,1.743c-0.713,0.137 -1.294,0.222 -1.743,0.257c-0.449,0.033 -0.874,0.051 -1.274,0.051c-1.338,0 -2.383,-0.156 -3.135,-0.469s-1.313,-0.788 -1.685,-1.428s-0.557,-1.336 -0.557,-2.088c0,-0.439 0.065,-0.845 0.198,-1.216c0.131,-0.371 0.31,-0.708 0.534,-1.011s0.545,-0.605 0.96,-0.908s0.85,-0.552 1.304,-0.747s0.984,-0.388 1.59,-0.579c0.605,-0.189 1.577,-0.446 2.915,-0.769c0.43,-0.098 0.796,-0.198 1.099,-0.3c0.303,-0.104 0.571,-0.203 0.806,-0.301s0.439,-0.213 0.615,-0.344c0.176,-0.133 0.338,-0.293 0.484,-0.484c0.146,-0.189 0.254,-0.383 0.322,-0.578c0.067,-0.195 0.103,-0.391 0.103,-0.586c0,-0.479 -0.156,-0.889 -0.47,-1.23c-0.313,-0.342 -0.72,-0.581 -1.223,-0.718s-1.097,-0.205 -1.78,-0.205c-0.635,0 -1.287,0.052 -1.956,0.153c-0.669,0.104 -1.245,0.226 -1.729,0.367s-1.088,0.352 -1.81,0.635z"/>
  <path fill="#FFFFFF" d="m532.136,396.273c0.352,-5.635 0.526,-10.132 0.526,-13.491l-0.015,-1.348c0.498,0.01 0.909,0.015 1.231,0.015c0.371,0 0.786,-0.005 1.245,-0.015l-0.117,2.432c0.361,-0.605 0.682,-1.062 0.96,-1.37c0.278,-0.307 0.593,-0.561 0.944,-0.762c0.352,-0.199 0.75,-0.355 1.194,-0.469c0.444,-0.111 0.905,-0.168 1.384,-0.168c0.41,0 0.815,0.049 1.216,0.146c0.01,0.645 0.044,1.367 0.103,2.168c-0.605,-0.166 -1.147,-0.249 -1.626,-0.249c-0.576,0 -1.094,0.095 -1.552,0.286c-0.459,0.189 -0.872,0.479 -1.238,0.863c-0.366,0.387 -0.666,0.848 -0.9,1.385c-0.195,0.43 -0.344,0.986 -0.446,1.67s-0.184,1.929 -0.242,3.735c-0.038,1.318 -0.058,2.715 -0.058,4.189l0,0.981c-0.528,-0.02 -0.953,-0.029 -1.275,-0.029c-0.294,0.002 -0.739,0.012 -1.334,0.031z"/>
  <path fill="#FFFFFF" d="m554.812,393.944c-0.117,0.537 -0.234,1.221 -0.352,2.051c-0.938,0.234 -1.75,0.393 -2.439,0.476c-0.688,0.083 -1.374,0.125 -2.058,0.125c-1.221,0 -2.317,-0.146 -3.288,-0.439c-0.973,-0.293 -1.805,-0.803 -2.498,-1.531c-0.693,-0.727 -1.191,-1.56 -1.494,-2.497s-0.454,-1.929 -0.454,-2.974c0,-1.455 0.278,-2.805 0.835,-4.051c0.557,-1.244 1.394,-2.224 2.512,-2.937s2.537,-1.069 4.256,-1.069c0.889,0 1.738,0.13 2.549,0.389s1.484,0.651 2.021,1.179s0.952,1.179 1.245,1.956c0.293,0.775 0.439,1.623 0.439,2.541c0,0.352 -0.029,0.693 -0.088,1.025l-11.177,0c-0.039,0.537 -0.059,0.947 -0.059,1.23c0,1.025 0.215,1.971 0.645,2.834c0.43,0.865 1.064,1.52 1.904,1.963c0.84,0.445 1.807,0.667 2.9,0.667c1.261,0 2.794,-0.313 4.601,-0.938zm-9.874,-6.972l8.73,0c-0.01,-0.615 -0.049,-1.094 -0.117,-1.436s-0.195,-0.696 -0.381,-1.062c-0.186,-0.367 -0.438,-0.684 -0.754,-0.953c-0.318,-0.268 -0.699,-0.473 -1.143,-0.615c-0.445,-0.141 -0.926,-0.212 -1.443,-0.212c-0.557,0 -1.087,0.078 -1.59,0.234s-0.947,0.371 -1.332,0.645c-0.387,0.273 -0.714,0.593 -0.982,0.96c-0.269,0.365 -0.469,0.72 -0.6,1.062c-0.132,0.342 -0.261,0.801 -0.388,1.377z"/>
  <path fill="#FFFFFF" d="m565.402,395.995l-0.088,-1.076c0,-0.118 -0.039,-0.492 -0.117,-1.121c1.504,0.654 2.891,0.981 4.16,0.981c0.664,0 1.226,-0.088 1.685,-0.263s0.803,-0.436 1.032,-0.781s0.345,-0.703 0.345,-1.073c0,-0.204 -0.032,-0.408 -0.095,-0.612c-0.064,-0.205 -0.159,-0.401 -0.286,-0.592c-0.127,-0.189 -0.315,-0.398 -0.563,-0.628c-0.25,-0.229 -0.768,-0.66 -1.553,-1.295c-0.787,-0.635 -1.383,-1.13 -1.787,-1.486c-0.406,-0.356 -0.753,-0.723 -1.041,-1.1c-0.288,-0.375 -0.5,-0.754 -0.637,-1.135s-0.205,-0.767 -0.205,-1.157c0,-0.625 0.197,-1.23 0.594,-1.816c0.395,-0.586 0.967,-1.022 1.713,-1.312c0.748,-0.287 1.624,-0.432 2.63,-0.432c1.123,0 2.358,0.132 3.706,0.396c0.039,0.762 0.088,1.46 0.146,2.095c-1.094,-0.449 -2.173,-0.674 -3.237,-0.674c-0.576,0 -1.111,0.076 -1.604,0.227c-0.493,0.152 -0.854,0.379 -1.084,0.682s-0.344,0.635 -0.344,0.996c0,0.234 0.039,0.459 0.117,0.674s0.217,0.447 0.418,0.695c0.199,0.25 0.441,0.496 0.725,0.74s0.847,0.703 1.691,1.377s1.424,1.172 1.736,1.494s0.581,0.654 0.806,0.996s0.388,0.682 0.491,1.018c0.102,0.338 0.153,0.682 0.153,1.033c0,0.684 -0.203,1.318 -0.608,1.904s-1.008,1.04 -1.809,1.362s-1.699,0.483 -2.695,0.483c-0.42,0 -0.913,-0.027 -1.479,-0.08c-0.566,-0.055 -1.048,-0.117 -1.442,-0.191c-0.397,-0.072 -0.888,-0.182 -1.474,-0.329z"/>
  <path fill="#FFFFFF" d="m585.383,381.098c1.025,0 2.002,0.146 2.93,0.439s1.73,0.757 2.409,1.392s1.194,1.436 1.546,2.402s0.527,1.987 0.527,3.062c0,1.162 -0.188,2.275 -0.563,3.34c-0.377,1.064 -0.904,1.968 -1.582,2.71c-0.68,0.742 -1.51,1.287 -2.49,1.634c-0.982,0.346 -2.034,0.52 -3.157,0.52c-1.045,0 -2.031,-0.156 -2.959,-0.469s-1.731,-0.801 -2.409,-1.465c-0.68,-0.664 -1.194,-1.477 -1.546,-2.439c-0.352,-0.961 -0.527,-1.97 -0.527,-3.024c0,-1.592 0.322,-3.024 0.967,-4.3c0.645,-1.273 1.592,-2.227 2.842,-2.855c1.248,-0.633 2.586,-0.947 4.012,-0.947zm-0.067,1.86c-0.994,0 -1.908,0.249 -2.742,0.747s-1.451,1.248 -1.851,2.248c-0.399,1.002 -0.6,2.093 -0.6,3.274c0,1.035 0.166,1.966 0.497,2.79c0.332,0.826 0.878,1.492 1.639,2s1.677,0.762 2.75,0.762c0.731,0 1.424,-0.125 2.077,-0.373c0.653,-0.25 1.224,-0.662 1.711,-1.238s0.849,-1.281 1.082,-2.117c0.234,-0.834 0.352,-1.711 0.352,-2.629c0,-0.859 -0.117,-1.665 -0.352,-2.417c-0.233,-0.752 -0.592,-1.354 -1.074,-1.81c-0.483,-0.453 -1.029,-0.773 -1.639,-0.959s-1.226,-0.278 -1.85,-0.278z"/>
  <path fill="#FFFFFF" d="m595.681,396.273c0.194,-3.008 0.385,-6.572 0.569,-10.693c0.127,-2.998 0.22,-6.099 0.278,-9.302l1.363,0.015c0.283,0 0.719,-0.005 1.305,-0.015l-0.453,8.599l-0.321,8.701l-0.058,2.695c-0.577,-0.02 -1.007,-0.029 -1.291,-0.029c-0.117,0 -0.581,0.01 -1.392,0.029z"/>
  <path fill="#FFFFFF" d="m616.322,396.273c-0.479,-0.02 -0.89,-0.029 -1.231,-0.029c-0.392,0 -0.797,0.01 -1.217,0.029l0.073,-2.827c-0.234,0.439 -0.438,0.779 -0.608,1.019s-0.384,0.474 -0.637,0.703c-0.255,0.229 -0.516,0.422 -0.784,0.578s-0.584,0.296 -0.944,0.418c-0.361,0.121 -0.784,0.224 -1.268,0.307s-0.998,0.125 -1.545,0.125c-1.191,0 -2.21,-0.181 -3.055,-0.542s-1.484,-0.874 -1.919,-1.538s-0.651,-1.572 -0.651,-2.725c0,-0.176 0.01,-0.474 0.029,-0.894c0.019,-0.42 0.048,-0.967 0.087,-1.641l0.246,-4.878l0.043,-1.567c0.01,-0.361 0.015,-0.82 0.015,-1.377l1.351,0.015c0.273,0 0.694,-0.005 1.262,-0.015c-0.139,1.709 -0.27,3.579 -0.393,5.61c-0.124,2.031 -0.186,3.33 -0.186,3.896c0,0.859 0.139,1.545 0.417,2.059c0.278,0.512 0.743,0.908 1.393,1.186c0.65,0.279 1.386,0.418 2.206,0.418c0.723,0 1.417,-0.127 2.081,-0.381c0.567,-0.225 1.046,-0.527 1.437,-0.908c0.42,-0.42 0.771,-0.962 1.056,-1.626c0.205,-0.488 0.361,-1.118 0.469,-1.89c0.068,-0.557 0.137,-1.558 0.205,-3.003c0.078,-1.758 0.131,-3.545 0.16,-5.361l1.364,0.015c0.293,0 0.703,-0.005 1.231,-0.015c-0.137,1.758 -0.297,4.429 -0.482,8.013c-0.108,1.973 -0.175,4.248 -0.205,6.826z"/>
  <path fill="#FFFFFF" d="m627.746,394.34c-0.107,0.479 -0.225,1.113 -0.352,1.904c-0.664,0.156 -1.191,0.254 -1.582,0.293s-0.762,0.059 -1.113,0.059c-0.869,0 -1.57,-0.109 -2.102,-0.33c-0.533,-0.219 -0.94,-0.57 -1.224,-1.055c-0.283,-0.482 -0.425,-1.14 -0.425,-1.97c0,-0.107 0.005,-0.298 0.015,-0.571s0.06,-1.226 0.149,-2.856l0.357,-6.563l-1.957,0c0.039,-0.41 0.073,-0.996 0.103,-1.758l1.997,0c0.049,-0.547 0.099,-1.479 0.147,-2.798c0.916,-0.176 1.69,-0.342 2.323,-0.498c-0.067,1.445 -0.106,2.544 -0.116,3.296l4.071,0c-0.049,0.615 -0.078,1.201 -0.088,1.758l-4.056,0l-0.391,8.247l-0.015,0.63c0,0.713 0.08,1.248 0.241,1.604s0.402,0.612 0.724,0.769c0.322,0.156 0.658,0.234 1.01,0.234c0.243,0 0.507,-0.02 0.79,-0.059c0.285,-0.038 0.782,-0.151 1.494,-0.336z"/>
  <path fill="#FFFFFF" d="m629.973,396.273l0.254,-3.691l0.284,-6.299l0.119,-4.849l1.349,0.015l1.319,-0.015c-0.109,1.523 -0.209,3.118 -0.299,4.782c-0.09,1.666 -0.162,3.484 -0.217,5.457s-0.082,3.506 -0.082,4.6c-0.616,-0.02 -1.056,-0.029 -1.32,-0.029c-0.244,0 -0.713,0.01 -1.407,0.029zm0.673,-18.032c0.029,-0.918 0.044,-1.611 0.044,-2.08c0.537,0.02 1.011,0.029 1.421,0.029c0.518,0 0.986,-0.01 1.406,-0.029c-0.02,0.303 -0.049,0.996 -0.088,2.08c-0.527,-0.01 -0.981,-0.015 -1.362,-0.015s-0.854,0.005 -1.421,0.015z"/>
  <path fill="#FFFFFF" d="m644.035,381.098c1.025,0 2.002,0.146 2.93,0.439s1.73,0.757 2.409,1.392s1.194,1.436 1.546,2.402s0.527,1.987 0.527,3.062c0,1.162 -0.188,2.275 -0.563,3.34c-0.377,1.064 -0.904,1.968 -1.582,2.71c-0.68,0.742 -1.51,1.287 -2.49,1.634c-0.982,0.346 -2.034,0.52 -3.157,0.52c-1.045,0 -2.031,-0.156 -2.959,-0.469s-1.731,-0.801 -2.409,-1.465c-0.68,-0.664 -1.194,-1.477 -1.546,-2.439c-0.352,-0.961 -0.527,-1.97 -0.527,-3.024c0,-1.592 0.322,-3.024 0.967,-4.3c0.645,-1.273 1.592,-2.227 2.842,-2.855c1.248,-0.633 2.586,-0.947 4.012,-0.947zm-0.066,1.86c-0.994,0 -1.908,0.249 -2.742,0.747s-1.451,1.248 -1.851,2.248c-0.399,1.002 -0.6,2.093 -0.6,3.274c0,1.035 0.166,1.966 0.497,2.79c0.332,0.826 0.878,1.492 1.639,2s1.677,0.762 2.75,0.762c0.731,0 1.424,-0.125 2.077,-0.373c0.653,-0.25 1.224,-0.662 1.711,-1.238s0.849,-1.281 1.082,-2.117c0.234,-0.834 0.352,-1.711 0.352,-2.629c0,-0.859 -0.117,-1.665 -0.352,-2.417c-0.233,-0.752 -0.592,-1.354 -1.074,-1.81c-0.483,-0.453 -1.029,-0.773 -1.639,-0.959s-1.226,-0.278 -1.85,-0.278z"/>
  <path fill="#FFFFFF" d="m654.23,396.273c0.467,-6.123 0.71,-11.069 0.729,-14.839l1.32,0.015c0.322,0 0.747,-0.005 1.275,-0.015l-0.193,2.93c0.244,-0.41 0.439,-0.726 0.586,-0.944c0.146,-0.221 0.342,-0.452 0.586,-0.696s0.532,-0.471 0.864,-0.681s0.723,-0.386 1.173,-0.527c0.449,-0.142 0.905,-0.247 1.369,-0.315s0.926,-0.103 1.385,-0.103c0.841,0 1.651,0.103 2.433,0.308s1.424,0.54 1.927,1.003c0.503,0.465 0.84,0.984 1.011,1.561s0.257,1.196 0.257,1.86c0,0.127 -0.005,0.371 -0.015,0.732s-0.029,0.835 -0.058,1.421l-0.291,6.138c-0.02,0.586 -0.033,1.304 -0.043,2.153c-0.44,-0.02 -0.856,-0.029 -1.247,-0.029c-0.479,0 -0.929,0.01 -1.35,0.029c0.099,-1.182 0.172,-2.319 0.222,-3.413l0.192,-3.413c0.059,-1.172 0.089,-2.056 0.089,-2.651c0,-0.859 -0.147,-1.546 -0.44,-2.058c-0.293,-0.514 -0.763,-0.908 -1.407,-1.188c-0.646,-0.277 -1.369,-0.417 -2.171,-0.417c-1.135,0 -2.107,0.269 -2.919,0.806c-0.743,0.498 -1.319,1.206 -1.73,2.124c-0.283,0.654 -0.483,1.621 -0.601,2.9c-0.149,1.533 -0.254,3.97 -0.313,7.31c-0.545,-0.02 -0.968,-0.029 -1.269,-0.029c-0.301,-0.001 -0.758,0.009 -1.371,0.028z"/>
  <path fill="#FFDE17" d="m340.84,370.994c-0.625,0 -1.134,-0.51 -1.134,-1.135l0,-7.894l-19.399,0l0,7.894c0,0.625 -0.509,1.135 -1.134,1.135l-8.125,0c-0.625,0 -1.134,-0.51 -1.134,-1.135l0,-25.01c0,-3.243 1.121,-6.008 3.332,-8.22c2.294,-2.31 5.019,-3.481 8.098,-3.481l27.619,0c0.625,0 1.134,0.51 1.134,1.135l0,35.576c0,0.625 -0.509,1.135 -1.134,1.135l-8.123,0zm-1.133,-19.423l0,-8.051l-18.361,0c-0.352,0 -0.598,0.071 -0.753,0.22c-0.254,0.256 -0.285,0.45 -0.285,0.573l0,7.258l19.399,0z"/>
  <path fill="#FFDE17" d="m353.846,370.994c-0.625,0 -1.134,-0.51 -1.134,-1.135l0,-35.576c0,-0.625 0.509,-1.135 1.134,-1.135l8.125,0c0.625,0 1.134,0.51 1.134,1.135l0,26.341l20.068,0c0.351,0 0.597,-0.072 0.753,-0.222c0.254,-0.255 0.285,-0.448 0.285,-0.571l0,-25.548c0,-0.625 0.509,-1.135 1.134,-1.135l8.125,0c0.625,0 1.134,0.51 1.134,1.135l0,25.012c0,3.241 -1.122,6.007 -3.333,8.219c-2.293,2.309 -5.018,3.48 -8.097,3.48l-29.328,0z"/>
  <path fill="#FFDE17" d="m413.6,370.994c-0.625,0 -1.134,-0.51 -1.134,-1.135l0,-26.314l-14.117,0c-0.625,0 -1.134,-0.51 -1.134,-1.135l0,-8.127c0,-0.625 0.509,-1.135 1.134,-1.135l38.112,0c0.625,0 1.134,0.51 1.134,1.135l0,8.127c0,0.625 -0.509,1.135 -1.134,1.135l-13.603,0l0,26.314c0,0.625 -0.509,1.135 -1.134,1.135l-8.124,0z"/>
  <path fill="#FFDE17" d="m451.865,371.103c-3.098,0 -5.839,-1.18 -8.146,-3.504c-2.221,-2.221 -3.348,-5 -3.348,-8.26l0,-14.533c0,-3.262 1.128,-6.043 3.351,-8.266c2.306,-2.321 5.045,-3.5 8.143,-3.5l18.061,0c3.096,0 5.837,1.179 8.145,3.504c2.221,2.221 3.348,5.001 3.348,8.262l0,14.533c0,3.259 -1.127,6.039 -3.351,8.263c-2.304,2.322 -5.044,3.501 -8.142,3.501l-18.061,0zm18.061,-10.42c0.465,0 0.669,-0.138 0.782,-0.241c0.169,-0.18 0.27,-0.378 0.27,-0.563l0,-15.612c0,-0.069 0,-0.28 -0.32,-0.612c-0.133,-0.119 -0.388,-0.192 -0.731,-0.192l-2.271,0c-0.077,0.017 -0.154,0.025 -0.231,0.025l-13.056,0c-0.078,0 -0.158,-0.009 -0.237,-0.025l-2.265,0c-0.466,0 -0.669,0.137 -0.781,0.239c-0.172,0.181 -0.271,0.379 -0.271,0.565l0,15.612c0,0.069 0,0.28 0.322,0.615c0.17,0.152 0.493,0.189 0.73,0.189l2.273,0c0.075,-0.016 0.152,-0.024 0.229,-0.024l13.056,0c0.079,0 0.157,0.009 0.233,0.024l2.268,0z"/>
  <path fill="#FFDE17" d="m573.658,370.994c-0.625,0 -1.135,-0.51 -1.135,-1.135l0,-35.576c0,-0.625 0.51,-1.135 1.135,-1.135l8.122,0c0.625,0 1.135,0.51 1.135,1.135l0,35.576c0,0.625 -0.51,1.135 -1.135,1.135l-8.122,0z"/>
  <path fill="#FFDE17" d="m603.228,370.994c-0.425,0 -0.811,-0.234 -1.007,-0.612l-18.396,-35.577c-0.18,-0.35 -0.165,-0.774 0.039,-1.11c0.204,-0.337 0.575,-0.546 0.969,-0.546l9.148,0c0.427,0 0.813,0.236 1.008,0.615l12.728,24.555l12.705,-24.557c0.196,-0.378 0.582,-0.613 1.008,-0.613l9.15,0c0.394,0 0.765,0.209 0.969,0.546c0.204,0.336 0.219,0.761 0.039,1.109l-18.397,35.577c-0.197,0.379 -0.583,0.613 -1.008,0.613l-8.955,0z"/>
  <path fill="#FFDE17" d="m643.927,370.994c-3.065,0 -5.79,-1.172 -8.098,-3.482c-2.212,-2.211 -3.334,-4.976 -3.334,-8.217l0,-25.012c0,-0.625 0.51,-1.135 1.135,-1.135l36.087,0c0.625,0 1.135,0.51 1.135,1.135l0,8.127c0,0.625 -0.51,1.135 -1.135,1.135l-26.828,0l0,3.318l26.828,0c0.625,0 1.135,0.51 1.135,1.135l0,8.148c0,0.625 -0.51,1.135 -1.135,1.135l-26.828,0l0,2.55c0,0.123 0.031,0.317 0.304,0.592c0.134,0.133 0.382,0.201 0.734,0.201l25.79,0c0.625,0 1.135,0.51 1.135,1.135l0,8.101c0,0.625 -0.51,1.135 -1.135,1.135l-25.79,0l0,-0.001z"/>
  <path fill="#FFDE17" d="m560.214,370.994c-0.419,0 -0.802,-0.23 -1,-0.601l-5.635,-10.573l-15.191,0l0,10.039c0,0.625 -0.51,1.135 -1.135,1.135l-8.126,0c-0.625,0 -1.135,-0.51 -1.135,-1.135l0,-19.325c0,-0.625 0.51,-1.135 1.135,-1.135l29.524,0c0.241,0 0.443,-0.09 0.654,-0.293c0.141,-0.14 0.212,-0.37 0.212,-0.696l0,-4.865l-30.149,0c-0.345,0 -0.667,-0.155 -0.884,-0.425c-0.216,-0.27 -0.298,-0.617 -0.224,-0.953c0.453,-2.079 1.499,-3.965 3.109,-5.603c2.212,-2.266 4.938,-3.416 8.104,-3.416l29.303,0c0.625,0 1.135,0.51 1.135,1.135l0,14.127c0,3.16 -1.104,5.876 -3.281,8.071c-0.82,0.835 -1.73,1.524 -2.71,2.053l5.407,10.817c0.175,0.35 0.156,0.773 -0.05,1.104c-0.205,0.332 -0.574,0.538 -0.964,0.538l-8.099,0l0,0.001z"/>
  <path fill="#FFDE17" d="m486.371,370.771c-0.625,0 -1.133,-0.51 -1.133,-1.135l0,-18.789c0,-0.625 0.508,-1.135 1.133,-1.135l8.09,0c0.625,0 1.133,0.51 1.133,1.135l0,9.107l10.362,0c5.578,0 8.649,-2.839 8.649,-7.995c0,-4.408 -3.88,-7.994 -8.649,-7.994l-19.585,0c-0.625,0 -1.133,-0.51 -1.133,-1.135l0,-8.547c0,-0.625 0.508,-1.135 1.133,-1.135l20.309,0c6.841,0 11.999,2.509 15.331,7.457c1.121,1.664 2.044,3.695 2.821,6.209c0.893,2.893 0.894,7.313 0.002,10.282c-0.735,2.455 -1.658,4.488 -2.823,6.217c-3.333,4.948 -8.491,7.457 -15.331,7.457l-20.309,0l0,0.001z"/>
  <polygon fill="#FFDE17" points="611.437,607.158 611.535,607.158 473.761,419.743 403.265,419.743 413.557,433.743 413.458,433.743   544.5,612 614.996,612 "/>
  <polygon fill="#F26522" points="476.225,558.845 476.332,558.845 360.61,401.428 290.113,401.428 296.96,410.741 296.814,410.741   412.536,568.158 412.574,568.158 444.804,612 515.301,612 "/>
</svg>